<?xml version="1.0" encoding="UTF-8"?><svg id="Layer_1" xmlns="http://www.w3.org/2000/svg" xmlns:xlink="http://www.w3.org/1999/xlink" viewBox="0 0 1212.09 753"><defs><style>.cls-1{filter:url(#drop-shadow-1);}.cls-2{fill:#fff;stroke-width:0px;}.cls-3{fill:url(#linear-gradient);stroke:#000;stroke-miterlimit:10;}</style><linearGradient id="linear-gradient" x1="1214.68" y1="375.4" x2="3.59" y2="377.59" gradientUnits="userSpaceOnUse"><stop offset="0" stop-color="#16ed97"/><stop offset="1" stop-color="#9945ff"/></linearGradient><filter id="drop-shadow-1" filterUnits="userSpaceOnUse"><feOffset dx="7" dy="7"/><feGaussianBlur result="blur" stdDeviation="5"/><feFlood flood-color="#000" flood-opacity=".2"/><feComposite in2="blur" operator="in"/><feComposite in="SourceGraphic"/></filter></defs><rect class="cls-3" x=".5" y=".5" width="1211.09" height="752" rx="12" ry="12"/><g class="cls-1"><path class="cls-2" d="M275.3,156.82v292h151v68h-223V156.82h72Z"/><path class="cls-2" d="M480.8,156.82h235.5v68h-163.5v77h132.5v68h-132.5v147h-72V156.82Z"/><path class="cls-2" d="M946.79,239.82c0-11-6-17-17-17h-82.5c-11,0-17,6-17,17v194c0,11,6,17,17,17h82.5c11,0,17-6,17-17v-53.5h-66v-65h138v132.5c0,42-29,71-71,71h-118.5c-42,0-71-29-71-71v-222c0-42,29-71,71-71h118.5c42,0,71,29,71,71v47h-72v-33Z"/></g><path class="cls-2" d="M692.15,644.95v6.36c0,1.32.72,2.04,2.04,2.04h9c1.32,0,2.04-.72,2.04-2.04v-8.4h-10.56c-1.44,0-2.52.48-2.52,2.04Z"/><polygon class="cls-2" points="788.44 643.27 797.68 643.27 793.12 627.43 788.44 643.27"/><path class="cls-2" d="M320.82,598.64v81.82h570.45v-81.82H320.82ZM392.45,661.15h-26.76v-43.2h8.64v35.04h18.12v8.16ZM427.25,626.11h-19.62v8.88h15.9v8.16h-15.9v9.84h19.62v8.16h-28.26v-43.2h28.26v8.16ZM463.67,652.87c0,5.04-3.48,8.52-8.52,8.52h-13.44c-5.04,0-8.52-3.48-8.52-8.52v-5.52h8.4v3.84c0,1.32.72,2.04,2.04,2.04h9.36c1.32,0,2.04-.72,2.04-2.04v-4.56c0-1.32-.72-1.74-2.04-2.04l-11.16-2.4c-4.68-1.02-8.64-3.84-8.64-8.64v-7.32c0-5.04,3.48-8.52,8.52-8.52h12.72c5.04,0,8.52,3.48,8.52,8.52v5.04h-8.4v-3.36c0-1.32-.72-2.04-2.04-2.04h-8.64c-1.32,0-2.04.72-2.04,2.04v4.08c0,1.32.72,1.74,2.04,2.04l11.16,2.4c4.68,1.02,8.64,3.84,8.64,8.64v7.8ZM501.17,652.87c0,5.04-3.48,8.52-8.52,8.52h-13.44c-5.04,0-8.52-3.48-8.52-8.52v-5.52h8.4v3.84c0,1.32.72,2.04,2.04,2.04h9.36c1.32,0,2.04-.72,2.04-2.04v-4.56c0-1.32-.72-1.74-2.04-2.04l-11.16-2.4c-4.68-1.02-8.64-3.84-8.64-8.64v-7.32c0-5.04,3.48-8.52,8.52-8.52h12.72c5.04,0,8.52,3.48,8.52,8.52v5.04h-8.4v-3.36c0-1.32-.72-2.04-2.04-2.04h-8.64c-1.32,0-2.04.72-2.04,2.04v4.08c0,1.32.72,1.74,2.04,2.04l11.16,2.4c4.68,1.02,8.64,3.84,8.64,8.64v7.8ZM553.49,626.11h-19.62v9.24h15.9v8.16h-15.9v17.64h-8.64v-43.2h28.26v8.16ZM588.29,626.11h-19.62v8.88h15.9v8.16h-15.9v9.84h19.62v8.16h-28.26v-43.2h28.26v8.16ZM624.17,626.11h-19.62v8.88h15.9v8.16h-15.9v9.84h19.62v8.16h-28.26v-43.2h28.26v8.16ZM660.58,652.87c0,5.04-3.48,8.52-8.52,8.52h-13.44c-5.04,0-8.52-3.48-8.52-8.52v-5.52h8.4v3.84c0,1.32.72,2.04,2.04,2.04h9.36c1.32,0,2.04-.72,2.04-2.04v-4.56c0-1.32-.72-1.74-2.04-2.04l-11.16-2.4c-4.68-1.02-8.64-3.84-8.64-8.64v-7.32c0-5.04,3.48-8.52,8.52-8.52h12.72c5.04,0,8.52,3.48,8.52,8.52v5.04h-8.4v-3.36c0-1.32-.72-2.04-2.04-2.04h-8.64c-1.32,0-2.04.72-2.04,2.04v4.08c0,1.32.72,1.74,2.04,2.04l11.16,2.4c4.68,1.02,8.64,3.84,8.64,8.64v7.8ZM718.18,642.91h-4.32v9.96c0,5.04-3.48,8.52-8.52,8.52h-13.32c-5.04,0-8.52-3.48-8.52-8.52v-7.32c0-2.58,1.26-5.04,4.26-6.48-2.76-1.62-3.78-3.9-3.78-6.48v-6.36c0-5.04,3.48-8.52,8.52-8.52h10.8c5.04,0,8.52,3.48,8.52,8.52v4.2h-8.64v-2.64c0-1.32-.72-2.04-2.04-2.04h-6.48c-1.32,0-2.04.72-2.04,2.04v5.4c0,1.44.6,2.04,2.04,2.04h23.52v7.68ZM770.2,631.87h-8.64v-3.96c0-1.32-.72-2.04-2.04-2.04h-9.9c-1.32,0-2.04.72-2.04,2.04v23.28c0,1.32.72,2.04,2.04,2.04h9.9c1.32,0,2.04-.72,2.04-2.04v-6.42h-7.92v-7.8h16.56v15.9c0,5.04-3.48,8.52-8.52,8.52h-14.22c-5.04,0-8.52-3.48-8.52-8.52v-26.64c0-5.04,3.48-8.52,8.52-8.52h14.22c5.04,0,8.52,3.48,8.52,8.52v5.64ZM802.84,661.15l-2.82-9.72h-13.98l-2.88,9.72h-8.94l13.92-43.2h10.08l13.92,43.2h-9.3ZM846.4,652.87c0,5.04-3.48,8.52-8.52,8.52h-13.44c-5.04,0-8.52-3.48-8.52-8.52v-5.52h8.4v3.84c0,1.32.72,2.04,2.04,2.04h9.36c1.32,0,2.04-.72,2.04-2.04v-4.56c0-1.32-.72-1.74-2.04-2.04l-11.16-2.4c-4.68-1.02-8.64-3.84-8.64-8.64v-7.32c0-5.04,3.48-8.52,8.52-8.52h12.72c5.04,0,8.52,3.48,8.52,8.52v5.04h-8.4v-3.36c0-1.32-.72-2.04-2.04-2.04h-8.64c-1.32,0-2.04.72-2.04,2.04v4.08c0,1.32.72,1.74,2.04,2.04l11.16,2.4c4.68,1.02,8.64,3.84,8.64,8.64v7.8Z"/></svg>